<?xml version="1.0" encoding="UTF-8"?>
<svg version="1.1" xmlns="http://www.w3.org/2000/svg" width="389" height="138">
<path d="M0 0 C128.37 0 256.74 0 389 0 C389 45.54 389 91.08 389 138 C260.63 138 132.26 138 0 138 C0 92.46 0 46.92 0 0 Z " fill="#FEFEFE" transform="translate(0,0)"/>
<path d="M0 0 C1.08539063 -0.02449219 2.17078125 -0.04898437 3.2890625 -0.07421875 C9.39341278 -0.09660634 13.59558636 -0.0241716 18.25 4.375 C20.99134895 8.27586487 22.14539929 12.17685768 23.15234375 16.7734375 C23.39809898 17.84146103 23.39809898 17.84146103 23.64881897 18.93106079 C24.16997572 21.20225012 24.67931723 23.47587607 25.1875 25.75 C25.85930525 28.71705908 26.53593346 31.68299661 27.21484375 34.6484375 C27.38076019 35.37472351 27.54667664 36.10100952 27.71762085 36.8493042 C30.11040332 48.92703725 30.11040332 48.92703725 34.25 60.375 C47.12 60.375 59.99 60.375 73.25 60.375 C73.25 58.395 73.25 56.415 73.25 54.375 C70.76082832 53.13041416 69.05202874 53.24917946 66.26953125 53.234375 C65.26986328 53.21503906 64.27019531 53.19570312 63.24023438 53.17578125 C61.14146485 53.14224222 59.04239522 53.12372247 56.94335938 53.12109375 C50.04255603 52.95310494 46.39869805 52.05626882 41.25 47.375 C37.66168154 42.39765504 37.54547225 37.30075393 38.25 31.375 C40.19054982 25.85975315 43.23107009 22.88700358 48.42749023 20.28442383 C51.9855237 19.13801135 55.33668113 19.06943985 59.03515625 19.07421875 C59.77326035 19.06993362 60.51136444 19.0656485 61.27183533 19.06123352 C62.82582578 19.0555116 64.379843 19.05497415 65.93383789 19.05932617 C68.3085687 19.06249475 70.68206282 19.03897254 73.05664062 19.01367188 C74.57031093 19.01139947 76.08398458 19.01069511 77.59765625 19.01171875 C78.30503433 19.002509 79.01241241 18.99329926 79.7412262 18.98381042 C82.80668147 19.0125551 84.97119383 19.22643133 87.69702148 20.67895508 C89.25 22.375 89.25 22.375 89.75 25.875 C89.25 29.375 89.25 29.375 87.69433594 31.06176758 C84.38200094 32.84133709 81.31340676 32.85324878 77.640625 32.88671875 C76.91381531 32.90466995 76.18700562 32.92262115 75.43817139 32.94111633 C73.12550593 32.99513241 70.81304579 33.0290856 68.5 33.0625 C66.9283569 33.09568093 65.35674086 33.13017132 63.78515625 33.16601562 C59.94025254 33.25085328 56.09540878 33.31770506 52.25 33.375 C51.86781233 35.03114657 51.53604898 36.69957024 51.25 38.375 C52.83083591 39.95583591 54.46900223 39.52098859 56.66015625 39.55078125 C58.02237305 39.58655273 58.02237305 39.58655273 59.41210938 39.62304688 C61.31814494 39.66540322 63.22445624 39.69697979 65.13085938 39.71679688 C72.55824829 39.9412366 77.84438003 41.59673108 83.625 46.3125 C86.87407923 50.43633132 87.66452654 54.11966934 87.49609375 59.390625 C86.90394918 64.16537804 84.77786011 66.87009033 81.375 70.125 C75.54423425 74.32315134 70.84424599 74.71279738 63.85546875 74.78125 C62.94928299 74.79265015 62.04309723 74.80405029 61.10945129 74.8157959 C59.19565465 74.83464688 57.28179381 74.84774438 55.36791992 74.85546875 C52.4570048 74.87487 49.54892401 74.93694248 46.63867188 75 C44.77345416 75.01306345 42.90821637 75.02356307 41.04296875 75.03125 C40.18124557 75.0559436 39.3195224 75.08063721 38.4316864 75.1060791 C31.82811165 75.05798473 27.91883107 73.02434702 23.25 68.375 C20.75042034 65.056477 19.72493709 62.04404698 18.85546875 58.0078125 C18.50971802 56.44728149 18.50971802 56.44728149 18.15698242 54.85522461 C17.91955322 53.74800049 17.68212402 52.64077637 17.4375 51.5 C16.91933321 49.16997831 16.39843857 46.8405618 15.875 44.51171875 C15.60945313 43.33013184 15.34390625 42.14854492 15.0703125 40.93115234 C13.78678708 35.36691685 12.3784011 29.83778631 10.9375 24.3125 C10.68315186 23.32588379 10.42880371 22.33926758 10.16674805 21.32275391 C9.92996338 20.42089355 9.69317871 19.5190332 9.44921875 18.58984375 C9.24127686 17.79698975 9.03333496 17.00413574 8.8190918 16.18725586 C8.40324312 14.37398405 8.40324312 14.37398405 7.25 13.375 C3.48278835 13.20496537 -0.27811486 13.07763415 -4.04882812 13.03320312 C-10.12637811 12.82125288 -10.12637811 12.82125288 -13.33203125 10.52734375 C-14.75 8.375 -14.75 8.375 -14.625 5.25 C-12.48263397 -1.78920267 -6.22192474 0.00728563 0 0 Z " fill="#FD3C40" transform="translate(41.75,17.625)"/>
<path d="M0 0 C2.97 0 5.94 0 9 0 C10.65 5.28 12.3 10.56 14 16 C16.04060129 12.93909807 16.95646418 10.3655313 18.0625 6.875 C19.89630931 1.10369069 19.89630931 1.10369069 21 0 C22.99958364 -0.04080783 25.00045254 -0.04254356 27 0 C27.84124316 2.24732102 28.67314832 4.49738785 29.5 6.75 C29.73847656 7.38421875 29.97695312 8.0184375 30.22265625 8.671875 C31.44801758 12.03286607 32 14.36871587 32 18 C32.66 18 33.32 18 34 18 C34.103125 17.05125 34.20625 16.1025 34.3125 15.125 C36.03132458 2.96867542 36.03132458 2.96867542 39 0 C41.69654854 -0.07319621 44.36691458 -0.09242537 47.0625 -0.0625 C47.82111328 -0.05798828 48.57972656 -0.05347656 49.36132812 -0.04882812 C51.24091871 -0.0370068 53.12046899 -0.01907078 55 0 C57.37482656 5.31623611 59.72013426 10.6423155 62 16 C62.98111975 13.8967433 63.95983134 11.79236311 64.9375 9.6875 C65.48277344 8.51574219 66.02804688 7.34398437 66.58984375 6.13671875 C68.03484939 3.06306938 68.03484939 3.06306938 69 0 C71.64 0 74.28 0 77 0 C74.7792346 7.04819969 72.04966392 13.74448219 69.0625 20.5 C68.41764648 21.97146484 68.41764648 21.97146484 67.75976562 23.47265625 C65.19262409 29.3237133 62.60032124 35.16362224 60 41 C57.36 41 54.72 41 52 41 C52.52972701 36.76218396 54.13599011 33.69154794 56.2578125 30.0625 C57.76188566 25.88275985 55.62406531 21.79891051 53.93359375 17.91796875 C53.53076172 16.98662109 53.12792969 16.05527344 52.71289062 15.09570312 C52.29201172 14.13599609 51.87113281 13.17628906 51.4375 12.1875 C51.01275391 11.20845703 50.58800781 10.22941406 50.15039062 9.22070312 C49.10460494 6.81187093 48.05435216 4.40509197 47 2 C43.70136684 9.66405831 40.73785968 17.37929872 38.015625 25.26171875 C37 28 37 28 36 29 C33.69 29 31.38 29 29 29 C27.35 24.38 25.7 19.76 24 15 C22.06061181 17.90908228 21.03225043 20.40862379 19.875 23.6875 C19.52179688 24.68136719 19.16859375 25.67523438 18.8046875 26.69921875 C18.53914063 27.45847656 18.27359375 28.21773437 18 29 C15.69 29 13.38 29 11 29 C8.18446381 22.30998701 5.41015278 15.60332918 2.6875 8.875 C2.28797119 7.89841431 2.28797119 7.89841431 1.88037109 6.90209961 C0 2.23080346 0 2.23080346 0 0 Z " fill="#243A5A" transform="translate(140,56)"/>
<path d="M0 0 C2.9375 1.5 2.9375 1.5 5 3 C5.33 2.34 5.66 1.68 6 1 C8.31 1 10.62 1 13 1 C13 10.57 13 20.14 13 30 C10.69 30 8.38 30 6 30 C5.67 29.34 5.34 28.68 5 28 C4.319375 28.495 3.63875 28.99 2.9375 29.5 C-0.71831169 31.36679746 -2.93308428 31.42809639 -7 31 C-12.18054504 29.17157234 -14.32996482 26.7467292 -17 22 C-18.676194 16.97141801 -18.60642735 12.65969589 -16.8125 7.75 C-12.49017913 1.19199592 -7.65913727 -0.52821636 0 0 Z " fill="#223859" transform="translate(308,55)"/>
<path d="M0 0 C0.66 0.33 1.32 0.66 2 1 C1.67 2.98 1.34 4.96 1 7 C0.05125 6.95875 -0.8975 6.9175 -1.875 6.875 C-5.10244856 6.65026182 -5.10244856 6.65026182 -7 9 C-7.40047444 11.32275177 -7.7397104 13.65739357 -8 16 C-5.03 16 -2.06 16 1 16 C1 17.98 1 19.96 1 22 C-1.64 22 -4.28 22 -7 22 C-7 29.59 -7 37.18 -7 45 C-9.64 45 -12.28 45 -15 45 C-15 37.41 -15 29.82 -15 22 C-16.32 22 -17.64 22 -19 22 C-19 20.02 -19 18.04 -19 16 C-17.68 16 -16.36 16 -15 16 C-15.06960937 15.26394531 -15.13921875 14.52789062 -15.2109375 13.76953125 C-15.63388853 6.14634247 -15.63388853 6.14634247 -13.98046875 3.15625 C-9.90867766 -0.70241704 -5.23905277 -0.73346739 0 0 Z " fill="#273D5D" transform="translate(238,40)"/>
<path d="M0 0 C0 2.97 0 5.94 0 9 C2.97 9 5.94 9 9 9 C9 10.98 9 12.96 9 15 C6.03 15 3.06 15 0 15 C0.14024219 17.47960136 0.2869185 19.95852402 0.4375 22.4375 C0.47681641 23.14455078 0.51613281 23.85160156 0.55664062 24.58007812 C0.47624438 28.08690419 0.47624438 28.08690419 2 31 C4.33297433 31.04092937 6.66705225 31.04241723 9 31 C9.1875 33.875 9.1875 33.875 9 37 C5.29873141 39.46751239 3.37776468 39.30721156 -1 39 C-3.81288035 38.14050878 -4.77778525 37.28252241 -6.59765625 34.96875 C-8.49838634 30.94492028 -8.33081099 27.57134638 -8.1875 23.1875 C-8.16719727 22.00510742 -8.16719727 22.00510742 -8.14648438 20.79882812 C-8.11133456 18.86558831 -8.05753361 16.93270318 -8 15 C-9.32 15 -10.64 15 -12 15 C-12 13.02 -12 11.04 -12 9 C-10.68 9 -9.36 9 -8 9 C-8 6.36 -8 3.72 -8 1 C-5.07175348 0.02391783 -3.04386724 -0.08226668 0 0 Z " fill="#283D5D" transform="translate(252,47)"/>
<path d="M0 0 C0 2.97 0 5.94 0 9 C2.64 9 5.28 9 8 9 C8 10.98 8 12.96 8 15 C5.36 15 2.72 15 0 15 C0.33 19.95 0.66 24.9 1 30 C3.31 30.66 5.62 31.32 8 32 C8.1875 34.375 8.1875 34.375 8 37 C4.4913604 39.33909307 3.12910567 39.41291057 -1 39 C-4.49406769 37.33237678 -5.82670681 36.25993978 -8 33 C-8.22705078 31.00708008 -8.22705078 31.00708008 -8.1953125 28.76953125 C-8.18886719 27.96708984 -8.18242187 27.16464844 -8.17578125 26.33789062 C-8.15902344 25.50451172 -8.14226562 24.67113281 -8.125 23.8125 C-8.11597656 22.96751953 -8.10695313 22.12253906 -8.09765625 21.25195312 C-8.07410703 19.16784757 -8.03823647 17.08388783 -8 15 C-9.32 15 -10.64 15 -12 15 C-12 13.02 -12 11.04 -12 9 C-10.68 9 -9.36 9 -8 9 C-8 6.36 -8 3.72 -8 1 C-5.29120665 -0.35439668 -2.99066732 -0.06501451 0 0 Z " fill="#273C5C" transform="translate(358,47)"/>
<path d="M0 0 C0.804375 0.495 1.60875 0.99 2.4375 1.5 C2.1875 3.375 2.1875 3.375 1.4375 5.5 C-0.625 6.75 -0.625 6.75 -2.5625 7.5 C-3.5525 6.84 -4.5425 6.18 -5.5625 5.5 C-8.74772831 5.00996487 -10.12261202 5.22655612 -12.875 6.9375 C-15.28132764 10.59155308 -15.43508175 14.23142443 -14.5625 18.5 C-13.33286761 20.32357525 -13.33286761 20.32357525 -11.5625 21.5 C-8.09515841 21.75684012 -5.14417669 21.62926149 -1.75 20.875 C-1.028125 20.75125 -0.30625 20.6275 0.4375 20.5 C2.4375 22.5 2.4375 22.5 2.4375 24.4375 C0.85067087 27.71033508 -1.20411458 28.27876894 -4.5625 29.5 C-9.93989472 30.29110777 -13.95576288 29.53625856 -18.5625 26.5 C-23.14920256 21.54140264 -23.91461295 17.56956872 -23.84765625 11.0078125 C-23.32171499 6.38241127 -20.88825738 3.66505952 -17.5 0.6875 C-12.03716377 -2.66068995 -5.74004333 -2.41686035 0 0 Z " fill="#253B5B" transform="translate(286.5625,56.5)"/>
<path d="M0 0 C0 2.64 0 5.28 0 8 C-4.455 8.495 -4.455 8.495 -9 9 C-9.73286092 11.93144368 -10.16043754 14.16825067 -10.31640625 17.109375 C-10.35830078 17.86347656 -10.40019531 18.61757812 -10.44335938 19.39453125 C-10.50233398 20.56048828 -10.50233398 20.56048828 -10.5625 21.75 C-10.60568359 22.54277344 -10.64886719 23.33554688 -10.69335938 24.15234375 C-10.79902991 26.10137815 -10.89997966 28.05066748 -11 30 C-13.64 30 -16.28 30 -19 30 C-19 20.43 -19 10.86 -19 1 C-16.36 1 -13.72 1 -11 1 C-10.67 1.66 -10.34 2.32 -10 3 C-9.195625 2.2575 -9.195625 2.2575 -8.375 1.5 C-5.40641555 -0.37489544 -3.44687573 -0.23501425 0 0 Z " fill="#2B405E" transform="translate(344,55)"/>
<path d="M0 0 C4.38497506 1.29925187 4.38497506 1.29925187 6.375 4 C6.7734375 6.59375 6.7734375 6.59375 6.75 9.5 C6.75773437 10.4590625 6.76546875 11.418125 6.7734375 12.40625 C6.375 15 6.375 15 5.1015625 16.8203125 C2.07011435 18.89157345 -1.09970998 18.55197652 -4.625 18 C-7.29931489 16.18836733 -7.58420359 15.12238923 -8.625 12 C-9.11111608 7.62495527 -9.08837407 5.67399865 -6.5625 2 C-3.625 0 -3.625 0 0 0 Z " fill="#F8F8F8" transform="translate(306.625,61)"/>
<path d="M0 0 C1.9375 1.1875 1.9375 1.1875 3 3 C3.70541917 7.0561602 3.32120577 8.54252512 0.9375 11.9375 C-2 14 -2 14 -5.625 14.0625 C-9 13 -9 13 -11 11.375 C-12.46981805 7.88418213 -11.98413921 5.60851044 -11 2 C-7.79952331 -1.93904824 -4.62362797 -1.17692348 0 0 Z " fill="#223A5C" transform="translate(115,98)"/>
<path d="M0 0 C2.375 1.5625 2.375 1.5625 4 4 C4.5625 7.5 4.5625 7.5 4 11 C1.875 13.5 1.875 13.5 -1 15 C-4.18409977 14.936318 -6.14932332 14.51040601 -8.875 12.875 C-10.70099685 9.83167192 -10.42460581 7.45750445 -10 4 C-7.26646839 -0.10029741 -4.80388991 -0.80064832 0 0 Z " fill="#1F385A" transform="translate(80,97)"/>
</svg>
